<mxfile host="app.diagrams.net" modified="2024-07-08T07:29:59.630Z" agent="Mozilla/5.0 (Windows NT 10.0; Win64; x64) AppleWebKit/537.36 (KHTML, like Gecko) Chrome/126.0.0.0 Safari/537.36" etag="Fmj14qMJ0uRXbsLGkx6u" version="24.6.4" type="device" pages="3">
  <diagram name="ページ1" id="2lbKozZ2ZAw87Hd7x6Lz">
    <mxGraphModel dx="880" dy="468" grid="1" gridSize="10" guides="1" tooltips="1" connect="1" arrows="1" fold="1" page="1" pageScale="1" pageWidth="827" pageHeight="1169" math="0" shadow="0">
      <root>
        <mxCell id="0" />
        <mxCell id="1" parent="0" />
        <mxCell id="NobfyHRDVmeg1nSmcKha-1" value="利用者" style="shape=umlActor;verticalLabelPosition=bottom;verticalAlign=top;html=1;outlineConnect=0;" vertex="1" parent="1">
          <mxGeometry x="120" y="211" width="30" height="60" as="geometry" />
        </mxCell>
        <mxCell id="NobfyHRDVmeg1nSmcKha-2" value="券売機システム" style="shape=umlActor;verticalLabelPosition=bottom;verticalAlign=top;html=1;outlineConnect=0;" vertex="1" parent="1">
          <mxGeometry x="670" y="200" width="30" height="60" as="geometry" />
        </mxCell>
        <mxCell id="NobfyHRDVmeg1nSmcKha-10" style="rounded=0;orthogonalLoop=1;jettySize=auto;html=1;exitX=1;exitY=0.5;exitDx=0;exitDy=0;endArrow=none;endFill=0;" edge="1" parent="1" source="NobfyHRDVmeg1nSmcKha-5" target="NobfyHRDVmeg1nSmcKha-2">
          <mxGeometry relative="1" as="geometry" />
        </mxCell>
        <mxCell id="NobfyHRDVmeg1nSmcKha-5" value="切符を購入する" style="ellipse;whiteSpace=wrap;html=1;" vertex="1" parent="1">
          <mxGeometry x="353.5" y="140" width="120" height="80" as="geometry" />
        </mxCell>
        <mxCell id="NobfyHRDVmeg1nSmcKha-9" style="rounded=0;orthogonalLoop=1;jettySize=auto;html=1;exitX=1;exitY=0.5;exitDx=0;exitDy=0;endArrow=none;endFill=0;" edge="1" parent="1" source="NobfyHRDVmeg1nSmcKha-6" target="NobfyHRDVmeg1nSmcKha-2">
          <mxGeometry relative="1" as="geometry">
            <mxPoint x="660" y="250" as="targetPoint" />
          </mxGeometry>
        </mxCell>
        <mxCell id="NobfyHRDVmeg1nSmcKha-6" value="ICカードにチャージする" style="ellipse;whiteSpace=wrap;html=1;" vertex="1" parent="1">
          <mxGeometry x="344" y="260" width="140" height="80" as="geometry" />
        </mxCell>
        <mxCell id="NobfyHRDVmeg1nSmcKha-7" value="" style="endArrow=none;html=1;rounded=0;entryX=0;entryY=0.5;entryDx=0;entryDy=0;" edge="1" parent="1" source="NobfyHRDVmeg1nSmcKha-1" target="NobfyHRDVmeg1nSmcKha-5">
          <mxGeometry width="50" height="50" relative="1" as="geometry">
            <mxPoint x="160" y="240" as="sourcePoint" />
            <mxPoint x="210" y="190" as="targetPoint" />
          </mxGeometry>
        </mxCell>
        <mxCell id="NobfyHRDVmeg1nSmcKha-8" value="" style="endArrow=none;html=1;rounded=0;entryX=0;entryY=0.5;entryDx=0;entryDy=0;" edge="1" parent="1" source="NobfyHRDVmeg1nSmcKha-1" target="NobfyHRDVmeg1nSmcKha-6">
          <mxGeometry width="50" height="50" relative="1" as="geometry">
            <mxPoint x="160" y="260" as="sourcePoint" />
            <mxPoint x="210" y="210" as="targetPoint" />
          </mxGeometry>
        </mxCell>
      </root>
    </mxGraphModel>
  </diagram>
  <diagram id="9LtHLvj8m4_jOrlPzUie" name="ページ2">
    <mxGraphModel dx="1035" dy="551" grid="1" gridSize="10" guides="1" tooltips="1" connect="1" arrows="1" fold="1" page="1" pageScale="1" pageWidth="827" pageHeight="1169" math="0" shadow="0">
      <root>
        <mxCell id="0" />
        <mxCell id="1" parent="0" />
        <mxCell id="CY73rL8RPHvwDV87AQpA-45" value="" style="shape=table;startSize=0;container=1;collapsible=0;childLayout=tableLayout;" vertex="1" parent="1">
          <mxGeometry x="80" y="30" width="690" height="560" as="geometry" />
        </mxCell>
        <mxCell id="CY73rL8RPHvwDV87AQpA-46" value="" style="shape=tableRow;horizontal=0;startSize=0;swimlaneHead=0;swimlaneBody=0;strokeColor=inherit;top=0;left=0;bottom=0;right=0;collapsible=0;dropTarget=0;fillColor=none;points=[[0,0.5],[1,0.5]];portConstraint=eastwest;" vertex="1" parent="CY73rL8RPHvwDV87AQpA-45">
          <mxGeometry width="690" height="50" as="geometry" />
        </mxCell>
        <mxCell id="CY73rL8RPHvwDV87AQpA-48" value="&lt;font style=&quot;font-size: 18px;&quot;&gt;利用者&lt;/font&gt;" style="shape=partialRectangle;html=1;whiteSpace=wrap;connectable=0;strokeColor=inherit;overflow=hidden;fillColor=none;top=0;left=0;bottom=0;right=0;pointerEvents=1;" vertex="1" parent="CY73rL8RPHvwDV87AQpA-46">
          <mxGeometry width="260" height="50" as="geometry">
            <mxRectangle width="260" height="50" as="alternateBounds" />
          </mxGeometry>
        </mxCell>
        <mxCell id="CY73rL8RPHvwDV87AQpA-47" value="&lt;font style=&quot;font-size: 18px;&quot;&gt;切符自販機&lt;/font&gt;" style="shape=partialRectangle;html=1;whiteSpace=wrap;connectable=0;strokeColor=inherit;overflow=hidden;fillColor=none;top=0;left=0;bottom=0;right=0;pointerEvents=1;" vertex="1" parent="CY73rL8RPHvwDV87AQpA-46">
          <mxGeometry x="260" width="430" height="50" as="geometry">
            <mxRectangle width="430" height="50" as="alternateBounds" />
          </mxGeometry>
        </mxCell>
        <mxCell id="CY73rL8RPHvwDV87AQpA-49" value="" style="shape=tableRow;horizontal=0;startSize=0;swimlaneHead=0;swimlaneBody=0;strokeColor=inherit;top=0;left=0;bottom=0;right=0;collapsible=0;dropTarget=0;fillColor=none;points=[[0,0.5],[1,0.5]];portConstraint=eastwest;" vertex="1" parent="CY73rL8RPHvwDV87AQpA-45">
          <mxGeometry y="50" width="690" height="510" as="geometry" />
        </mxCell>
        <mxCell id="CY73rL8RPHvwDV87AQpA-50" value="" style="shape=partialRectangle;html=1;whiteSpace=wrap;connectable=0;strokeColor=inherit;overflow=hidden;fillColor=none;top=0;left=0;bottom=0;right=0;pointerEvents=1;" vertex="1" parent="CY73rL8RPHvwDV87AQpA-49">
          <mxGeometry width="260" height="510" as="geometry">
            <mxRectangle width="260" height="510" as="alternateBounds" />
          </mxGeometry>
        </mxCell>
        <mxCell id="CY73rL8RPHvwDV87AQpA-51" value="" style="shape=partialRectangle;html=1;whiteSpace=wrap;connectable=0;strokeColor=inherit;overflow=hidden;fillColor=none;top=0;left=0;bottom=0;right=0;pointerEvents=1;" vertex="1" parent="CY73rL8RPHvwDV87AQpA-49">
          <mxGeometry x="260" width="430" height="510" as="geometry">
            <mxRectangle width="430" height="510" as="alternateBounds" />
          </mxGeometry>
        </mxCell>
        <mxCell id="CY73rL8RPHvwDV87AQpA-8" value="" style="shape=waypoint;sketch=0;fillStyle=solid;size=6;pointerEvents=1;points=[];fillColor=none;resizable=0;rotatable=0;perimeter=centerPerimeter;snapToPoint=1;fontSize=12;strokeWidth=9;" vertex="1" parent="1">
          <mxGeometry x="150" y="110" width="20" height="20" as="geometry" />
        </mxCell>
        <mxCell id="CY73rL8RPHvwDV87AQpA-13" style="edgeStyle=orthogonalEdgeStyle;rounded=0;orthogonalLoop=1;jettySize=auto;html=1;exitX=1;exitY=0.5;exitDx=0;exitDy=0;entryX=0;entryY=0.5;entryDx=0;entryDy=0;fontSize=13;" edge="1" parent="1" source="CY73rL8RPHvwDV87AQpA-10" target="CY73rL8RPHvwDV87AQpA-12">
          <mxGeometry relative="1" as="geometry" />
        </mxCell>
        <mxCell id="CY73rL8RPHvwDV87AQpA-10" value="購入する切符の金額を入力" style="rounded=1;whiteSpace=wrap;html=1;fontSize=13;" vertex="1" parent="1">
          <mxGeometry x="100" y="250" width="120" height="60" as="geometry" />
        </mxCell>
        <mxCell id="CY73rL8RPHvwDV87AQpA-15" style="rounded=0;orthogonalLoop=1;jettySize=auto;html=1;exitX=0;exitY=1;exitDx=0;exitDy=0;entryX=1;entryY=0;entryDx=0;entryDy=0;fontSize=13;" edge="1" parent="1" source="CY73rL8RPHvwDV87AQpA-12" target="CY73rL8RPHvwDV87AQpA-14">
          <mxGeometry relative="1" as="geometry" />
        </mxCell>
        <mxCell id="CY73rL8RPHvwDV87AQpA-12" value="切符の金額と入金を促す表示を出力" style="rounded=1;whiteSpace=wrap;html=1;fontSize=13;" vertex="1" parent="1">
          <mxGeometry x="430" y="250" width="120" height="60" as="geometry" />
        </mxCell>
        <mxCell id="CY73rL8RPHvwDV87AQpA-17" style="edgeStyle=orthogonalEdgeStyle;rounded=0;orthogonalLoop=1;jettySize=auto;html=1;exitX=1;exitY=0.5;exitDx=0;exitDy=0;fontSize=13;" edge="1" parent="1" source="CY73rL8RPHvwDV87AQpA-14" target="CY73rL8RPHvwDV87AQpA-37">
          <mxGeometry relative="1" as="geometry">
            <mxPoint x="465" y="405" as="targetPoint" />
          </mxGeometry>
        </mxCell>
        <mxCell id="CY73rL8RPHvwDV87AQpA-14" value="支払う" style="rounded=1;whiteSpace=wrap;html=1;fontSize=13;" vertex="1" parent="1">
          <mxGeometry x="100" y="360" width="120" height="60" as="geometry" />
        </mxCell>
        <mxCell id="CY73rL8RPHvwDV87AQpA-22" style="edgeStyle=orthogonalEdgeStyle;rounded=0;orthogonalLoop=1;jettySize=auto;html=1;exitX=0.5;exitY=1;exitDx=0;exitDy=0;fontSize=13;" edge="1" parent="1" source="CY73rL8RPHvwDV87AQpA-21" target="CY73rL8RPHvwDV87AQpA-10">
          <mxGeometry relative="1" as="geometry" />
        </mxCell>
        <mxCell id="CY73rL8RPHvwDV87AQpA-21" value="切符の購入を選択" style="rounded=1;whiteSpace=wrap;html=1;fontSize=13;" vertex="1" parent="1">
          <mxGeometry x="100" y="160" width="120" height="60" as="geometry" />
        </mxCell>
        <mxCell id="CY73rL8RPHvwDV87AQpA-40" style="edgeStyle=orthogonalEdgeStyle;rounded=0;orthogonalLoop=1;jettySize=auto;html=1;exitX=0.5;exitY=1;exitDx=0;exitDy=0;entryX=0.5;entryY=0;entryDx=0;entryDy=0;fontSize=13;" edge="1" parent="1" source="CY73rL8RPHvwDV87AQpA-37" target="CY73rL8RPHvwDV87AQpA-39">
          <mxGeometry relative="1" as="geometry" />
        </mxCell>
        <mxCell id="CY73rL8RPHvwDV87AQpA-37" value="切符を発行する" style="rounded=1;whiteSpace=wrap;html=1;fontSize=13;" vertex="1" parent="1">
          <mxGeometry x="430" y="360" width="120" height="60" as="geometry" />
        </mxCell>
        <mxCell id="CY73rL8RPHvwDV87AQpA-42" style="edgeStyle=orthogonalEdgeStyle;rounded=0;orthogonalLoop=1;jettySize=auto;html=1;exitX=0;exitY=0.5;exitDx=0;exitDy=0;entryX=1;entryY=0.5;entryDx=0;entryDy=0;fontSize=13;" edge="1" parent="1" source="CY73rL8RPHvwDV87AQpA-39" target="CY73rL8RPHvwDV87AQpA-41">
          <mxGeometry relative="1" as="geometry" />
        </mxCell>
        <mxCell id="CY73rL8RPHvwDV87AQpA-39" value="お釣りを清算して、現金を用意する" style="rounded=1;whiteSpace=wrap;html=1;fontSize=13;" vertex="1" parent="1">
          <mxGeometry x="430" y="460" width="120" height="60" as="geometry" />
        </mxCell>
        <mxCell id="CY73rL8RPHvwDV87AQpA-54" style="edgeStyle=orthogonalEdgeStyle;rounded=0;orthogonalLoop=1;jettySize=auto;html=1;exitX=0.5;exitY=1;exitDx=0;exitDy=0;" edge="1" parent="1" source="CY73rL8RPHvwDV87AQpA-41" target="CY73rL8RPHvwDV87AQpA-44">
          <mxGeometry relative="1" as="geometry" />
        </mxCell>
        <mxCell id="CY73rL8RPHvwDV87AQpA-41" value="切符とお釣りを受け取る" style="rounded=1;whiteSpace=wrap;html=1;fontSize=13;" vertex="1" parent="1">
          <mxGeometry x="100" y="460" width="120" height="60" as="geometry" />
        </mxCell>
        <mxCell id="CY73rL8RPHvwDV87AQpA-44" value="" style="ellipse;html=1;shape=endState;fillColor=#000000;strokeColor=#000000;" vertex="1" parent="1">
          <mxGeometry x="145" y="550" width="30" height="30" as="geometry" />
        </mxCell>
        <mxCell id="CY73rL8RPHvwDV87AQpA-52" style="edgeStyle=orthogonalEdgeStyle;rounded=0;orthogonalLoop=1;jettySize=auto;html=1;exitX=0.5;exitY=0;exitDx=0;exitDy=0;entryX=0.456;entryY=0.832;entryDx=0;entryDy=0;entryPerimeter=0;startArrow=classic;startFill=1;endArrow=none;endFill=0;fontSize=13;" edge="1" parent="1" source="CY73rL8RPHvwDV87AQpA-21" target="CY73rL8RPHvwDV87AQpA-8">
          <mxGeometry relative="1" as="geometry" />
        </mxCell>
      </root>
    </mxGraphModel>
  </diagram>
  <diagram id="qG2chSuTPXnj3tjFew5O" name="ページ3">
    <mxGraphModel dx="1035" dy="551" grid="1" gridSize="10" guides="1" tooltips="1" connect="1" arrows="1" fold="1" page="1" pageScale="1" pageWidth="827" pageHeight="1169" math="0" shadow="0">
      <root>
        <mxCell id="0" />
        <mxCell id="1" parent="0" />
        <mxCell id="JIOUQD1BN6mai431z6Ca-48" value="" style="shape=table;startSize=0;container=1;collapsible=0;childLayout=tableLayout;" vertex="1" parent="1">
          <mxGeometry x="74" y="30" width="680" height="860" as="geometry" />
        </mxCell>
        <mxCell id="JIOUQD1BN6mai431z6Ca-49" value="" style="shape=tableRow;horizontal=0;startSize=0;swimlaneHead=0;swimlaneBody=0;strokeColor=inherit;top=0;left=0;bottom=0;right=0;collapsible=0;dropTarget=0;fillColor=none;points=[[0,0.5],[1,0.5]];portConstraint=eastwest;fontSize=16;" vertex="1" parent="JIOUQD1BN6mai431z6Ca-48">
          <mxGeometry width="680" height="40" as="geometry" />
        </mxCell>
        <mxCell id="JIOUQD1BN6mai431z6Ca-50" value="利用者" style="shape=partialRectangle;html=1;whiteSpace=wrap;connectable=0;strokeColor=inherit;overflow=hidden;fillColor=none;top=0;left=0;bottom=0;right=0;pointerEvents=1;fontSize=16;" vertex="1" parent="JIOUQD1BN6mai431z6Ca-49">
          <mxGeometry width="220" height="40" as="geometry">
            <mxRectangle width="220" height="40" as="alternateBounds" />
          </mxGeometry>
        </mxCell>
        <mxCell id="JIOUQD1BN6mai431z6Ca-51" value="ATM" style="shape=partialRectangle;html=1;whiteSpace=wrap;connectable=0;strokeColor=inherit;overflow=hidden;fillColor=none;top=0;left=0;bottom=0;right=0;pointerEvents=1;fontSize=16;" vertex="1" parent="JIOUQD1BN6mai431z6Ca-49">
          <mxGeometry x="220" width="460" height="40" as="geometry">
            <mxRectangle width="460" height="40" as="alternateBounds" />
          </mxGeometry>
        </mxCell>
        <mxCell id="JIOUQD1BN6mai431z6Ca-52" value="" style="shape=tableRow;horizontal=0;startSize=0;swimlaneHead=0;swimlaneBody=0;strokeColor=inherit;top=0;left=0;bottom=0;right=0;collapsible=0;dropTarget=0;fillColor=none;points=[[0,0.5],[1,0.5]];portConstraint=eastwest;" vertex="1" parent="JIOUQD1BN6mai431z6Ca-48">
          <mxGeometry y="40" width="680" height="820" as="geometry" />
        </mxCell>
        <mxCell id="JIOUQD1BN6mai431z6Ca-53" value="" style="shape=partialRectangle;html=1;whiteSpace=wrap;connectable=0;strokeColor=inherit;overflow=hidden;fillColor=none;top=0;left=0;bottom=0;right=0;pointerEvents=1;" vertex="1" parent="JIOUQD1BN6mai431z6Ca-52">
          <mxGeometry width="220" height="820" as="geometry">
            <mxRectangle width="220" height="820" as="alternateBounds" />
          </mxGeometry>
        </mxCell>
        <mxCell id="JIOUQD1BN6mai431z6Ca-54" value="" style="shape=partialRectangle;html=1;whiteSpace=wrap;connectable=0;strokeColor=inherit;overflow=hidden;fillColor=none;top=0;left=0;bottom=0;right=0;pointerEvents=1;" vertex="1" parent="JIOUQD1BN6mai431z6Ca-52">
          <mxGeometry x="220" width="460" height="820" as="geometry">
            <mxRectangle width="460" height="820" as="alternateBounds" />
          </mxGeometry>
        </mxCell>
        <mxCell id="JIOUQD1BN6mai431z6Ca-1" value="" style="ellipse;html=1;shape=startState;fillColor=#000000;strokeColor=#000000;" vertex="1" parent="1">
          <mxGeometry x="140" y="80" width="30" height="30" as="geometry" />
        </mxCell>
        <mxCell id="JIOUQD1BN6mai431z6Ca-2" value="" style="edgeStyle=orthogonalEdgeStyle;html=1;verticalAlign=bottom;endArrow=open;endSize=8;strokeColor=#000000;rounded=0;" edge="1" source="JIOUQD1BN6mai431z6Ca-1" parent="1" target="JIOUQD1BN6mai431z6Ca-3">
          <mxGeometry relative="1" as="geometry">
            <mxPoint x="155" y="140" as="targetPoint" />
          </mxGeometry>
        </mxCell>
        <mxCell id="JIOUQD1BN6mai431z6Ca-5" style="edgeStyle=orthogonalEdgeStyle;rounded=0;orthogonalLoop=1;jettySize=auto;html=1;exitX=0.5;exitY=1;exitDx=0;exitDy=0;" edge="1" parent="1" source="JIOUQD1BN6mai431z6Ca-3" target="JIOUQD1BN6mai431z6Ca-4">
          <mxGeometry relative="1" as="geometry" />
        </mxCell>
        <mxCell id="JIOUQD1BN6mai431z6Ca-3" value="カードを挿入する" style="rounded=1;whiteSpace=wrap;html=1;" vertex="1" parent="1">
          <mxGeometry x="95" y="130" width="120" height="60" as="geometry" />
        </mxCell>
        <mxCell id="JIOUQD1BN6mai431z6Ca-4" value="" style="html=1;whiteSpace=wrap;aspect=fixed;shape=isoRectangle;" vertex="1" parent="1">
          <mxGeometry x="130" y="210" width="50" height="30" as="geometry" />
        </mxCell>
        <mxCell id="JIOUQD1BN6mai431z6Ca-7" style="edgeStyle=orthogonalEdgeStyle;rounded=0;orthogonalLoop=1;jettySize=auto;html=1;exitX=0.5;exitY=0;exitDx=0;exitDy=0;startArrow=classic;startFill=1;endArrow=none;endFill=0;" edge="1" parent="1" source="JIOUQD1BN6mai431z6Ca-6" target="JIOUQD1BN6mai431z6Ca-4">
          <mxGeometry relative="1" as="geometry" />
        </mxCell>
        <mxCell id="JIOUQD1BN6mai431z6Ca-9" style="edgeStyle=orthogonalEdgeStyle;rounded=0;orthogonalLoop=1;jettySize=auto;html=1;exitX=1;exitY=0.5;exitDx=0;exitDy=0;entryX=0;entryY=0.5;entryDx=0;entryDy=0;" edge="1" parent="1" source="JIOUQD1BN6mai431z6Ca-6" target="JIOUQD1BN6mai431z6Ca-8">
          <mxGeometry relative="1" as="geometry" />
        </mxCell>
        <mxCell id="JIOUQD1BN6mai431z6Ca-6" value="暗証番号を入力する" style="rounded=1;whiteSpace=wrap;html=1;" vertex="1" parent="1">
          <mxGeometry x="95" y="260" width="120" height="60" as="geometry" />
        </mxCell>
        <mxCell id="JIOUQD1BN6mai431z6Ca-11" style="edgeStyle=orthogonalEdgeStyle;rounded=0;orthogonalLoop=1;jettySize=auto;html=1;exitX=0.5;exitY=1;exitDx=0;exitDy=0;" edge="1" parent="1" source="JIOUQD1BN6mai431z6Ca-8" target="JIOUQD1BN6mai431z6Ca-10">
          <mxGeometry relative="1" as="geometry" />
        </mxCell>
        <mxCell id="JIOUQD1BN6mai431z6Ca-8" value="暗証番号を確認する" style="rounded=1;whiteSpace=wrap;html=1;" vertex="1" parent="1">
          <mxGeometry x="400" y="260" width="120" height="60" as="geometry" />
        </mxCell>
        <mxCell id="JIOUQD1BN6mai431z6Ca-10" value="" style="html=1;whiteSpace=wrap;aspect=fixed;shape=isoRectangle;" vertex="1" parent="1">
          <mxGeometry x="435" y="340" width="50" height="30" as="geometry" />
        </mxCell>
        <mxCell id="JIOUQD1BN6mai431z6Ca-13" style="edgeStyle=orthogonalEdgeStyle;rounded=0;orthogonalLoop=1;jettySize=auto;html=1;exitX=0;exitY=0.5;exitDx=0;exitDy=0;startArrow=classic;startFill=1;endArrow=none;endFill=0;" edge="1" parent="1" source="JIOUQD1BN6mai431z6Ca-12" target="JIOUQD1BN6mai431z6Ca-10">
          <mxGeometry relative="1" as="geometry" />
        </mxCell>
        <mxCell id="JIOUQD1BN6mai431z6Ca-16" style="edgeStyle=elbowEdgeStyle;rounded=0;orthogonalLoop=1;jettySize=auto;html=1;exitX=0.5;exitY=0;exitDx=0;exitDy=0;elbow=vertical;" edge="1" parent="1" source="JIOUQD1BN6mai431z6Ca-12" target="JIOUQD1BN6mai431z6Ca-4">
          <mxGeometry relative="1" as="geometry">
            <mxPoint x="725" y="267.5" as="sourcePoint" />
            <mxPoint x="180" y="182.5" as="targetPoint" />
            <Array as="points">
              <mxPoint x="270" y="225" />
              <mxPoint x="380" y="220" />
            </Array>
          </mxGeometry>
        </mxCell>
        <mxCell id="JIOUQD1BN6mai431z6Ca-12" value="エラーメッセージを表示する" style="rounded=1;whiteSpace=wrap;html=1;" vertex="1" parent="1">
          <mxGeometry x="610" y="325" width="120" height="60" as="geometry" />
        </mxCell>
        <mxCell id="JIOUQD1BN6mai431z6Ca-15" value="" style="endArrow=classic;html=1;rounded=0;strokeColor=none;" edge="1" parent="1" target="JIOUQD1BN6mai431z6Ca-4">
          <mxGeometry width="50" height="50" relative="1" as="geometry">
            <mxPoint x="700" y="225" as="sourcePoint" />
            <mxPoint x="750" y="170" as="targetPoint" />
          </mxGeometry>
        </mxCell>
        <mxCell id="JIOUQD1BN6mai431z6Ca-22" style="edgeStyle=orthogonalEdgeStyle;rounded=0;orthogonalLoop=1;jettySize=auto;html=1;exitX=0.5;exitY=0;exitDx=0;exitDy=0;startArrow=classic;startFill=1;endArrow=none;endFill=0;" edge="1" parent="1" source="JIOUQD1BN6mai431z6Ca-17" target="JIOUQD1BN6mai431z6Ca-19">
          <mxGeometry relative="1" as="geometry" />
        </mxCell>
        <mxCell id="JIOUQD1BN6mai431z6Ca-26" style="edgeStyle=orthogonalEdgeStyle;rounded=0;orthogonalLoop=1;jettySize=auto;html=1;exitX=1;exitY=0.5;exitDx=0;exitDy=0;" edge="1" parent="1" source="JIOUQD1BN6mai431z6Ca-17" target="JIOUQD1BN6mai431z6Ca-27">
          <mxGeometry relative="1" as="geometry">
            <mxPoint x="435" y="460" as="targetPoint" />
          </mxGeometry>
        </mxCell>
        <mxCell id="JIOUQD1BN6mai431z6Ca-17" value="引き出し金額を入力する" style="rounded=1;whiteSpace=wrap;html=1;" vertex="1" parent="1">
          <mxGeometry x="95" y="430" width="120" height="60" as="geometry" />
        </mxCell>
        <mxCell id="JIOUQD1BN6mai431z6Ca-19" value="" style="html=1;whiteSpace=wrap;aspect=fixed;shape=isoRectangle;" vertex="1" parent="1">
          <mxGeometry x="130" y="380" width="50" height="30" as="geometry" />
        </mxCell>
        <mxCell id="JIOUQD1BN6mai431z6Ca-21" value="" style="endArrow=classic;html=1;rounded=0;edgeStyle=orthogonalEdgeStyle;" edge="1" parent="1" source="JIOUQD1BN6mai431z6Ca-10" target="JIOUQD1BN6mai431z6Ca-19">
          <mxGeometry width="50" height="50" relative="1" as="geometry">
            <mxPoint x="290" y="400" as="sourcePoint" />
            <mxPoint x="340" y="350" as="targetPoint" />
          </mxGeometry>
        </mxCell>
        <mxCell id="JIOUQD1BN6mai431z6Ca-23" value="【NG】" style="text;html=1;align=center;verticalAlign=middle;resizable=0;points=[];autosize=1;strokeColor=none;fillColor=none;" vertex="1" parent="1">
          <mxGeometry x="455" y="325" width="70" height="30" as="geometry" />
        </mxCell>
        <mxCell id="JIOUQD1BN6mai431z6Ca-24" value="【OK】" style="text;html=1;align=center;verticalAlign=middle;resizable=0;points=[];autosize=1;strokeColor=none;fillColor=none;" vertex="1" parent="1">
          <mxGeometry x="395" y="325" width="60" height="30" as="geometry" />
        </mxCell>
        <mxCell id="JIOUQD1BN6mai431z6Ca-29" style="edgeStyle=orthogonalEdgeStyle;rounded=0;orthogonalLoop=1;jettySize=auto;html=1;exitX=0.5;exitY=1;exitDx=0;exitDy=0;" edge="1" parent="1" source="JIOUQD1BN6mai431z6Ca-27" target="JIOUQD1BN6mai431z6Ca-28">
          <mxGeometry relative="1" as="geometry" />
        </mxCell>
        <mxCell id="JIOUQD1BN6mai431z6Ca-27" value="口座残高を確認する" style="rounded=1;whiteSpace=wrap;html=1;" vertex="1" parent="1">
          <mxGeometry x="400" y="430" width="120" height="60" as="geometry" />
        </mxCell>
        <mxCell id="JIOUQD1BN6mai431z6Ca-28" value="" style="html=1;whiteSpace=wrap;aspect=fixed;shape=isoRectangle;" vertex="1" parent="1">
          <mxGeometry x="435" y="520" width="50" height="30" as="geometry" />
        </mxCell>
        <mxCell id="JIOUQD1BN6mai431z6Ca-33" style="edgeStyle=orthogonalEdgeStyle;rounded=0;orthogonalLoop=1;jettySize=auto;html=1;exitX=0.5;exitY=0;exitDx=0;exitDy=0;startArrow=classic;startFill=1;endArrow=none;endFill=0;" edge="1" parent="1" source="JIOUQD1BN6mai431z6Ca-30" target="JIOUQD1BN6mai431z6Ca-28">
          <mxGeometry relative="1" as="geometry" />
        </mxCell>
        <mxCell id="JIOUQD1BN6mai431z6Ca-41" style="edgeStyle=orthogonalEdgeStyle;rounded=0;orthogonalLoop=1;jettySize=auto;html=1;exitX=0.5;exitY=1;exitDx=0;exitDy=0;" edge="1" parent="1" source="JIOUQD1BN6mai431z6Ca-30" target="JIOUQD1BN6mai431z6Ca-39">
          <mxGeometry relative="1" as="geometry" />
        </mxCell>
        <mxCell id="JIOUQD1BN6mai431z6Ca-30" value="口座から引き落とす" style="rounded=1;whiteSpace=wrap;html=1;" vertex="1" parent="1">
          <mxGeometry x="400" y="570" width="120" height="60" as="geometry" />
        </mxCell>
        <mxCell id="JIOUQD1BN6mai431z6Ca-34" style="edgeStyle=orthogonalEdgeStyle;rounded=0;orthogonalLoop=1;jettySize=auto;html=1;exitX=0;exitY=0.5;exitDx=0;exitDy=0;startArrow=classic;startFill=1;endArrow=none;endFill=0;" edge="1" parent="1" source="JIOUQD1BN6mai431z6Ca-31" target="JIOUQD1BN6mai431z6Ca-28">
          <mxGeometry relative="1" as="geometry" />
        </mxCell>
        <mxCell id="JIOUQD1BN6mai431z6Ca-38" style="edgeStyle=orthogonalEdgeStyle;rounded=0;orthogonalLoop=1;jettySize=auto;html=1;exitX=0.5;exitY=0;exitDx=0;exitDy=0;" edge="1" parent="1" source="JIOUQD1BN6mai431z6Ca-31" target="JIOUQD1BN6mai431z6Ca-19">
          <mxGeometry relative="1" as="geometry">
            <Array as="points">
              <mxPoint x="670" y="395" />
            </Array>
          </mxGeometry>
        </mxCell>
        <mxCell id="JIOUQD1BN6mai431z6Ca-31" value="残高不足のエラーメッセージを表示する" style="rounded=1;whiteSpace=wrap;html=1;" vertex="1" parent="1">
          <mxGeometry x="610" y="505" width="120" height="60" as="geometry" />
        </mxCell>
        <mxCell id="JIOUQD1BN6mai431z6Ca-35" value="【足りない】" style="text;html=1;align=center;verticalAlign=middle;resizable=0;points=[];autosize=1;strokeColor=none;fillColor=none;" vertex="1" parent="1">
          <mxGeometry x="455" y="498" width="100" height="30" as="geometry" />
        </mxCell>
        <mxCell id="JIOUQD1BN6mai431z6Ca-36" value="【足りる】" style="text;html=1;align=center;verticalAlign=middle;resizable=0;points=[];autosize=1;strokeColor=none;fillColor=none;" vertex="1" parent="1">
          <mxGeometry x="385" y="540" width="80" height="30" as="geometry" />
        </mxCell>
        <mxCell id="JIOUQD1BN6mai431z6Ca-43" style="edgeStyle=orthogonalEdgeStyle;rounded=0;orthogonalLoop=1;jettySize=auto;html=1;exitX=0.5;exitY=1;exitDx=0;exitDy=0;" edge="1" parent="1" source="JIOUQD1BN6mai431z6Ca-39" target="JIOUQD1BN6mai431z6Ca-42">
          <mxGeometry relative="1" as="geometry" />
        </mxCell>
        <mxCell id="JIOUQD1BN6mai431z6Ca-39" value="現金を用意する" style="rounded=1;whiteSpace=wrap;html=1;" vertex="1" parent="1">
          <mxGeometry x="400" y="660" width="120" height="60" as="geometry" />
        </mxCell>
        <mxCell id="JIOUQD1BN6mai431z6Ca-45" style="edgeStyle=orthogonalEdgeStyle;rounded=0;orthogonalLoop=1;jettySize=auto;html=1;exitX=0;exitY=0.5;exitDx=0;exitDy=0;" edge="1" parent="1" source="JIOUQD1BN6mai431z6Ca-42" target="JIOUQD1BN6mai431z6Ca-44">
          <mxGeometry relative="1" as="geometry" />
        </mxCell>
        <mxCell id="JIOUQD1BN6mai431z6Ca-42" value="伝票を印刷する" style="rounded=1;whiteSpace=wrap;html=1;" vertex="1" parent="1">
          <mxGeometry x="400" y="750" width="120" height="60" as="geometry" />
        </mxCell>
        <mxCell id="JIOUQD1BN6mai431z6Ca-47" style="edgeStyle=orthogonalEdgeStyle;rounded=0;orthogonalLoop=1;jettySize=auto;html=1;exitX=0.5;exitY=1;exitDx=0;exitDy=0;" edge="1" parent="1" source="JIOUQD1BN6mai431z6Ca-44" target="JIOUQD1BN6mai431z6Ca-46">
          <mxGeometry relative="1" as="geometry" />
        </mxCell>
        <mxCell id="JIOUQD1BN6mai431z6Ca-44" value="現金、カード、および伝票を取り出す" style="rounded=1;whiteSpace=wrap;html=1;" vertex="1" parent="1">
          <mxGeometry x="95" y="750" width="120" height="60" as="geometry" />
        </mxCell>
        <mxCell id="JIOUQD1BN6mai431z6Ca-46" value="" style="ellipse;html=1;shape=endState;fillColor=#000000;strokeColor=#000000;" vertex="1" parent="1">
          <mxGeometry x="140" y="840" width="30" height="30" as="geometry" />
        </mxCell>
      </root>
    </mxGraphModel>
  </diagram>
</mxfile>
